<?xml version="1.0" encoding="UTF-8"?>
<svg width="1000" height="2130" xmlns="http://www.w3.org/2000/svg">
    <rect width="100%" height="100%" fill="#ffffff"/>
    
    <defs>
        <style>
            .entity-box { fill: #e3f2fd; stroke: #1976d2; stroke-width: 2; rx: 5; }
            .entity-text { font-family: Arial, sans-serif; font-size: 12px; fill: #1565c0; }
            .entity-label { font-family: Arial, sans-serif; font-size: 10px; fill: #666; }
            .relationship-line { stroke: #ff9800; stroke-width: 2; marker-end: url(#arrowhead); }
            .title { font-family: Arial, sans-serif; font-size: 20px; font-weight: bold; fill: #333; }
            .subtitle { font-family: Arial, sans-serif; font-size: 14px; fill: #666; }
        </style>
        <marker id="arrowhead" markerWidth="10" markerHeight="7" refX="9" refY="3.5" orient="auto">
            <polygon points="0 0, 10 3.5, 0 7" fill="#ff9800" />
        </marker>
    </defs>
    <text x="400" y="30" text-anchor="middle" class="title">Entity Analysis Results</text><text x="400" y="50" text-anchor="middle" class="subtitle">Found 1767 entities across 18 categories</text><text x="50" y="90" class="entity-label" font-weight="bold">CARDINAL (99)</text><rect x="50" y="100" width="200" height="60" class="entity-box"/><text x="60" y="120" class="entity-text">two</text><text x="60" y="135" class="entity-label">Numerals that do not fall under another type</text><rect x="270" y="100" width="200" height="60" class="entity-box"/><text x="280" y="120" class="entity-text">2024</text><text x="280" y="135" class="entity-label">Numerals that do not fall under another type</text><rect x="490" y="100" width="200" height="60" class="entity-box"/><text x="500" y="120" class="entity-text">millions</text><text x="500" y="135" class="entity-label">Numerals that do not fall under another type</text><rect x="710" y="100" width="200" height="60" class="entity-box"/><text x="720" y="120" class="entity-text">one</text><text x="720" y="135" class="entity-label">Numerals that do not fall under another type</text><rect x="930" y="100" width="200" height="60" class="entity-box"/><text x="940" y="120" class="entity-text">three</text><text x="940" y="135" class="entity-label">Numerals that do not fall under another type</text><text x="50" y="200" class="entity-label" font-weight="bold">ORG (464)</text><rect x="50" y="210" width="200" height="60" class="entity-box"/><text x="60" y="230" class="entity-text">OpenAI</text><text x="60" y="245" class="entity-label">Companies, agencies, institutions, etc.</text><rect x="270" y="210" width="200" height="60" class="entity-box"/><text x="280" y="230" class="entity-text">ChatGPT</text><text x="280" y="245" class="entity-label">Companies, agencies, institutions, etc.</text><rect x="490" y="210" width="200" height="60" class="entity-box"/><text x="500" y="230" class="entity-text">The White House’s</text><text x="500" y="245" class="entity-label">Companies, agencies, institutions, etc.</text><rect x="710" y="210" width="200" height="60" class="entity-box"/><text x="720" y="230" class="entity-text">EPA</text><text x="720" y="245" class="entity-label">Companies, agencies, institutions, etc.</text><rect x="930" y="210" width="200" height="60" class="entity-box"/><text x="940" y="230" class="entity-text">AI</text><text x="940" y="245" class="entity-label">Companies, agencies, institutions, etc.</text><text x="50" y="310" class="entity-label" font-weight="bold">PERSON (284)</text><rect x="50" y="320" width="200" height="60" class="entity-box"/><text x="60" y="340" class="entity-text">Mark Chen</text><text x="60" y="355" class="entity-label">People, including fictional</text><rect x="270" y="320" width="200" height="60" class="entity-box"/><text x="280" y="340" class="entity-text">Jakub Pachocki</text><text x="280" y="355" class="entity-label">People, including fictional</text><rect x="490" y="320" width="200" height="60" class="entity-box"/><text x="500" y="340" class="entity-text">Altman</text><text x="500" y="355" class="entity-label">People, including fictional</text><rect x="710" y="320" width="200" height="60" class="entity-box"/><text x="720" y="340" class="entity-text">Musk</text><text x="720" y="355" class="entity-label">People, including fictional</text><rect x="930" y="320" width="200" height="60" class="entity-box"/><text x="940" y="340" class="entity-text">Adam Becker</text><text x="940" y="355" class="entity-label">People, including fictional</text><text x="50" y="420" class="entity-label" font-weight="bold">DATE (182)</text><rect x="50" y="430" width="200" height="60" class="entity-box"/><text x="60" y="450" class="entity-text">30 years old</text><text x="60" y="465" class="entity-label">Absolute or relative dates or periods</text><rect x="270" y="430" width="200" height="60" class="entity-box"/><text x="280" y="450" class="entity-text">decades-old</text><text x="280" y="465" class="entity-label">Absolute or relative dates or periods</text><rect x="490" y="430" width="200" height="60" class="entity-box"/><text x="500" y="450" class="entity-text">a decade ago</text><text x="500" y="465" class="entity-label">Absolute or relative dates or periods</text><rect x="710" y="430" width="200" height="60" class="entity-box"/><text x="720" y="450" class="entity-text">2019</text><text x="720" y="465" class="entity-label">Absolute or relative dates or periods</text><rect x="930" y="430" width="200" height="60" class="entity-box"/><text x="940" y="450" class="entity-text">last week</text><text x="940" y="465" class="entity-label">Absolute or relative dates or periods</text><text x="50" y="530" class="entity-label" font-weight="bold">GPE (70)</text><rect x="50" y="540" width="200" height="60" class="entity-box"/><text x="60" y="560" class="entity-text">US</text><text x="60" y="575" class="entity-label">Countries, cities, states</text><rect x="270" y="540" width="200" height="60" class="entity-box"/><text x="280" y="560" class="entity-text">Nebraska</text><text x="280" y="575" class="entity-label">Countries, cities, states</text><rect x="490" y="540" width="200" height="60" class="entity-box"/><text x="500" y="560" class="entity-text">Namibia</text><text x="500" y="575" class="entity-label">Countries, cities, states</text><rect x="710" y="540" width="200" height="60" class="entity-box"/><text x="720" y="560" class="entity-text">Puerto Rico</text><text x="720" y="575" class="entity-label">Countries, cities, states</text><rect x="930" y="540" width="200" height="60" class="entity-box"/><text x="940" y="560" class="entity-text">Amsterdam</text><text x="940" y="575" class="entity-label">Countries, cities, states</text><text x="50" y="640" class="entity-label" font-weight="bold">ORDINAL (8)</text><rect x="50" y="650" width="200" height="60" class="entity-box"/><text x="60" y="670" class="entity-text">first</text><text x="60" y="685" class="entity-label">"first", "second", etc.</text><rect x="270" y="650" width="200" height="60" class="entity-box"/><text x="280" y="670" class="entity-text">25th</text><text x="280" y="685" class="entity-label">"first", "second", etc.</text><rect x="490" y="650" width="200" height="60" class="entity-box"/><text x="500" y="670" class="entity-text">third</text><text x="500" y="685" class="entity-label">"first", "second", etc.</text><rect x="710" y="650" width="200" height="60" class="entity-box"/><text x="720" y="670" class="entity-text">50th</text><text x="720" y="685" class="entity-label">"first", "second", etc.</text><rect x="930" y="650" width="200" height="60" class="entity-box"/><text x="940" y="670" class="entity-text">second</text><text x="940" y="685" class="entity-label">"first", "second", etc.</text><text x="50" y="750" class="entity-label" font-weight="bold">PRODUCT (105)</text><rect x="50" y="760" width="200" height="60" class="entity-box"/><text x="60" y="780" class="entity-text">AI</text><text x="60" y="795" class="entity-label">Objects, vehicles, foods, etc. (not services)</text><rect x="270" y="760" width="200" height="60" class="entity-box"/><text x="280" y="780" class="entity-text">CommonPool</text><text x="280" y="795" class="entity-label">Objects, vehicles, foods, etc. (not services)</text><rect x="490" y="760" width="200" height="60" class="entity-box"/><text x="500" y="780" class="entity-text">Access</text><text x="500" y="795" class="entity-label">Objects, vehicles, foods, etc. (not services)</text><rect x="710" y="760" width="200" height="60" class="entity-box"/><text x="720" y="780" class="entity-text">DJI Surprises</text><text x="720" y="795" class="entity-label">Objects, vehicles, foods, etc. (not services)</text><rect x="930" y="760" width="200" height="60" class="entity-box"/><text x="940" y="780" class="entity-text">Windows 10</text><text x="940" y="795" class="entity-label">Objects, vehicles, foods, etc. (not services)</text><text x="50" y="860" class="entity-label" font-weight="bold">LOC (10)</text><rect x="50" y="870" width="200" height="60" class="entity-box"/><text x="60" y="890" class="entity-text">Earth</text><text x="60" y="905" class="entity-label">Non-GPE locations, mountain ranges, bodies of water</text><rect x="270" y="870" width="200" height="60" class="entity-box"/><text x="280" y="890" class="entity-text">West</text><text x="280" y="905" class="entity-label">Non-GPE locations, mountain ranges, bodies of water</text><rect x="490" y="870" width="200" height="60" class="entity-box"/><text x="500" y="890" class="entity-text">Silicon Valley</text><text x="500" y="905" class="entity-label">Non-GPE locations, mountain ranges, bodies of water</text><rect x="710" y="870" width="200" height="60" class="entity-box"/><text x="720" y="890" class="entity-text">Europe</text><text x="720" y="905" class="entity-label">Non-GPE locations, mountain ranges, bodies of water</text><rect x="930" y="870" width="200" height="60" class="entity-box"/><text x="940" y="890" class="entity-text">Asia</text><text x="940" y="905" class="entity-label">Non-GPE locations, mountain ranges, bodies of water</text><text x="50" y="970" class="entity-label" font-weight="bold">PERCENT (12)</text><rect x="50" y="980" width="200" height="60" class="entity-box"/><text x="60" y="1000" class="entity-text">50%</text><text x="60" y="1015" class="entity-label">Percentage, including "%"</text><rect x="270" y="980" width="200" height="60" class="entity-box"/><text x="280" y="1000" class="entity-text">5 percent</text><text x="280" y="1015" class="entity-label">Percentage, including "%"</text><rect x="490" y="980" width="200" height="60" class="entity-box"/><text x="500" y="1000" class="entity-text">10 percent</text><text x="500" y="1015" class="entity-label">Percentage, including "%"</text><rect x="710" y="980" width="200" height="60" class="entity-box"/><text x="720" y="1000" class="entity-text">15 percent</text><text x="720" y="1015" class="entity-label">Percentage, including "%"</text><rect x="930" y="980" width="200" height="60" class="entity-box"/><text x="940" y="1000" class="entity-text">250 percent</text><text x="940" y="1015" class="entity-label">Percentage, including "%"</text><text x="50" y="1080" class="entity-label" font-weight="bold">FAC (16)</text><rect x="50" y="1090" width="200" height="60" class="entity-box"/><text x="60" y="1110" class="entity-text">the Oval Office</text><text x="60" y="1125" class="entity-label">Buildings, airports, highways, bridges, etc.</text><rect x="270" y="1090" width="200" height="60" class="entity-box"/><text x="280" y="1110" class="entity-text">AI</text><text x="280" y="1125" class="entity-label">Buildings, airports, highways, bridges, etc.</text><rect x="490" y="1090" width="200" height="60" class="entity-box"/><text x="500" y="1110" class="entity-text">the Infinite Corridor</text><text x="500" y="1125" class="entity-label">Buildings, airports, highways, bridges, etc.</text><rect x="710" y="1090" width="200" height="60" class="entity-box"/><text x="720" y="1110" class="entity-text">Broadway</text><text x="720" y="1125" class="entity-label">Buildings, airports, highways, bridges, etc.</text><rect x="930" y="1090" width="200" height="60" class="entity-box"/><text x="940" y="1110" class="entity-text">Plant Spyware
Age</text><text x="940" y="1125" class="entity-label">Buildings, airports, highways, bridges, etc.</text><text x="50" y="1190" class="entity-label" font-weight="bold">QUANTITY (53)</text><rect x="50" y="1200" width="200" height="60" class="entity-box"/><text x="60" y="1220" class="entity-text">1,000 miles</text><text x="60" y="1235" class="entity-label">Measurements, as of weight or distance</text><rect x="270" y="1200" width="200" height="60" class="entity-box"/><text x="280" y="1220" class="entity-text">12-volt CRD2</text><text x="280" y="1235" class="entity-label">Measurements, as of weight or distance</text><rect x="490" y="1200" width="200" height="60" class="entity-box"/><text x="500" y="1220" class="entity-text">12-inch</text><text x="500" y="1235" class="entity-label">Measurements, as of weight or distance</text><rect x="710" y="1200" width="200" height="60" class="entity-box"/><text x="720" y="1220" class="entity-text">a few hundred meters</text><text x="720" y="1235" class="entity-label">Measurements, as of weight or distance</text><rect x="930" y="1200" width="200" height="60" class="entity-box"/><text x="940" y="1220" class="entity-text">14 inches</text><text x="940" y="1235" class="entity-label">Measurements, as of weight or distance</text><text x="50" y="1300" class="entity-label" font-weight="bold">EVENT (10)</text><rect x="50" y="1310" width="200" height="60" class="entity-box"/><text x="60" y="1330" class="entity-text">The New Rigs Are Nowhere ...</text><text x="60" y="1345" class="entity-label">Named hurricanes, battles, wars, sports events, etc.</text><rect x="270" y="1310" width="200" height="60" class="entity-box"/><text x="280" y="1330" class="entity-text">The New Era of Work Trave...</text><text x="280" y="1345" class="entity-label">Named hurricanes, battles, wars, sports events, etc.</text><rect x="490" y="1310" width="200" height="60" class="entity-box"/><text x="500" y="1330" class="entity-text">TechCrunch Week</text><text x="500" y="1345" class="entity-label">Named hurricanes, battles, wars, sports events, etc.</text><rect x="710" y="1310" width="200" height="60" class="entity-box"/><text x="720" y="1330" class="entity-text">Esports World Cup
World</text><text x="720" y="1345" class="entity-label">Named hurricanes, battles, wars, sports events, etc.</text><rect x="930" y="1310" width="200" height="60" class="entity-box"/><text x="940" y="1330" class="entity-text">the Industrial Revolution</text><text x="940" y="1345" class="entity-label">Named hurricanes, battles, wars, sports events, etc.</text><text x="50" y="1410" class="entity-label" font-weight="bold">TIME (25)</text><rect x="50" y="1420" width="200" height="60" class="entity-box"/><text x="60" y="1440" class="entity-text">48 HOURS</text><text x="60" y="1455" class="entity-label">Times smaller than a day</text><rect x="270" y="1420" width="200" height="60" class="entity-box"/><text x="280" y="1440" class="entity-text">1:04 AM UTC</text><text x="280" y="1455" class="entity-label">Times smaller than a day</text><rect x="490" y="1420" width="200" height="60" class="entity-box"/><text x="500" y="1440" class="entity-text">night</text><text x="500" y="1455" class="entity-label">Times smaller than a day</text><rect x="710" y="1420" width="200" height="60" class="entity-box"/><text x="720" y="1440" class="entity-text">7 hours ago</text><text x="720" y="1455" class="entity-label">Times smaller than a day</text><rect x="930" y="1420" width="200" height="60" class="entity-box"/><text x="940" y="1440" class="entity-text">12 hours ago</text><text x="940" y="1455" class="entity-label">Times smaller than a day</text><text x="50" y="1520" class="entity-label" font-weight="bold">MONEY (89)</text><rect x="50" y="1530" width="200" height="60" class="entity-box"/><text x="60" y="1550" class="entity-text">3,300</text><text x="60" y="1565" class="entity-label">Monetary values, including unit</text><rect x="270" y="1530" width="200" height="60" class="entity-box"/><text x="280" y="1550" class="entity-text">209.99</text><text x="280" y="1565" class="entity-label">Monetary values, including unit</text><rect x="490" y="1530" width="200" height="60" class="entity-box"/><text x="500" y="1550" class="entity-text">24.99</text><text x="500" y="1565" class="entity-label">Monetary values, including unit</text><rect x="710" y="1530" width="200" height="60" class="entity-box"/><text x="720" y="1550" class="entity-text">$299 to $339Emma RothAug ...</text><text x="720" y="1565" class="entity-label">Monetary values, including unit</text><rect x="930" y="1530" width="200" height="60" class="entity-box"/><text x="940" y="1550" class="entity-text">up to $800Jacob Kastrenak...</text><text x="940" y="1565" class="entity-label">Monetary values, including unit</text><text x="50" y="1630" class="entity-label" font-weight="bold">EMAIL (2)</text><rect x="50" y="1640" width="200" height="60" class="entity-box"/><text x="60" y="1660" class="entity-text">customer-service@technolo...</text><text x="60" y="1675" class="entity-label">Email address</text><rect x="270" y="1640" width="200" height="60" class="entity-box"/><text x="280" y="1660" class="entity-text">sean@theverge.com</text><text x="280" y="1675" class="entity-label">Email address</text><text x="50" y="1740" class="entity-label" font-weight="bold">URL (307)</text><rect x="50" y="1750" width="200" height="60" class="entity-box"/><text x="60" y="1770" class="entity-text">https://www.technologyrev...</text><text x="60" y="1785" class="entity-label">Website URL</text><rect x="270" y="1750" width="200" height="60" class="entity-box"/><text x="280" y="1770" class="entity-text">https://www.wired.com/</text><text x="280" y="1785" class="entity-label">Website URL</text><rect x="490" y="1750" width="200" height="60" class="entity-box"/><text x="500" y="1770" class="entity-text">https://www.theverge.com/</text><text x="500" y="1785" class="entity-label">Website URL</text><rect x="710" y="1750" width="200" height="60" class="entity-box"/><text x="720" y="1770" class="entity-text">https://www.techcrunch.co...</text><text x="720" y="1785" class="entity-label">Website URL</text><rect x="930" y="1750" width="200" height="60" class="entity-box"/><text x="940" y="1770" class="entity-text">https://www.artificialint...</text><text x="940" y="1785" class="entity-label">Website URL</text><text x="50" y="1850" class="entity-label" font-weight="bold">VERSION (18)</text><rect x="50" y="1860" width="200" height="60" class="entity-box"/><text x="60" y="1880" class="entity-text">Gemini 2.0</text><text x="60" y="1895" class="entity-label">Software version</text><rect x="270" y="1860" width="200" height="60" class="entity-box"/><text x="280" y="1880" class="entity-text">Project 2.0</text><text x="280" y="1895" class="entity-label">Software version</text><rect x="490" y="1860" width="200" height="60" class="entity-box"/><text x="500" y="1880" class="entity-text">submit 2.5</text><text x="500" y="1895" class="entity-label">Software version</text><rect x="710" y="1860" width="200" height="60" class="entity-box"/><text x="720" y="1880" class="entity-text">to 16.7</text><text x="720" y="1895" class="entity-label">Software version</text><rect x="930" y="1860" width="200" height="60" class="entity-box"/><text x="940" y="1880" class="entity-text">a 1.57</text><text x="940" y="1895" class="entity-label">Software version</text><text x="50" y="1960" class="entity-label" font-weight="bold">YEAR (13)</text><rect x="50" y="1970" width="200" height="60" class="entity-box"/><text x="60" y="1990" class="entity-text">2024</text><text x="60" y="2005" class="entity-label">Year</text><rect x="270" y="1970" width="200" height="60" class="entity-box"/><text x="280" y="1990" class="entity-text">2019</text><text x="280" y="2005" class="entity-label">Year</text><rect x="490" y="1970" width="200" height="60" class="entity-box"/><text x="500" y="1990" class="entity-text">2025</text><text x="500" y="2005" class="entity-label">Year</text><rect x="710" y="1970" width="200" height="60" class="entity-box"/><text x="720" y="1990" class="entity-text">2027</text><text x="720" y="2005" class="entity-label">Year</text><rect x="930" y="1970" width="200" height="60" class="entity-box"/><text x="940" y="1990" class="entity-text">2022</text><text x="940" y="2005" class="entity-label">Year</text>
</svg>