<?xml version="1.0" encoding="UTF-8"?>
<svg width="1000" height="2130" xmlns="http://www.w3.org/2000/svg">
    <rect width="100%" height="100%" fill="#ffffff"/>
    
    <defs>
        <style>
            .entity-box { fill: #e3f2fd; stroke: #1976d2; stroke-width: 2; rx: 5; }
            .entity-text { font-family: Arial, sans-serif; font-size: 12px; fill: #1565c0; }
            .entity-label { font-family: Arial, sans-serif; font-size: 10px; fill: #666; }
            .relationship-line { stroke: #ff9800; stroke-width: 2; marker-end: url(#arrowhead); }
            .title { font-family: Arial, sans-serif; font-size: 20px; font-weight: bold; fill: #333; }
            .subtitle { font-family: Arial, sans-serif; font-size: 14px; fill: #666; }
        </style>
        <marker id="arrowhead" markerWidth="10" markerHeight="7" refX="9" refY="3.5" orient="auto">
            <polygon points="0 0, 10 3.5, 0 7" fill="#ff9800" />
        </marker>
    </defs>
    <text x="400" y="30" text-anchor="middle" class="title">Entity Analysis Results</text><text x="400" y="50" text-anchor="middle" class="subtitle">Found 22474 entities across 18 categories</text><text x="50" y="90" class="entity-label" font-weight="bold">PERSON (6250)</text><rect x="50" y="100" width="200" height="60" class="entity-box"/><text x="60" y="120" class="entity-text">Dan Taylor</text><text x="60" y="135" class="entity-label">People, including fictional</text><rect x="270" y="100" width="200" height="60" class="entity-box"/><text x="280" y="120" class="entity-text">web2py
- GUI Development</text><text x="280" y="135" class="entity-label">People, including fictional</text><rect x="490" y="100" width="200" height="60" class="entity-box"/><text x="500" y="120" class="entity-text">PySide</text><text x="500" y="135" class="entity-label">People, including fictional</text><rect x="710" y="100" width="200" height="60" class="entity-box"/><text x="720" y="120" class="entity-text">Buildbot</text><text x="720" y="135" class="entity-label">People, including fictional</text><rect x="930" y="100" width="200" height="60" class="entity-box"/><text x="940" y="120" class="entity-text">Comprehensions</text><text x="940" y="135" class="entity-label">People, including fictional</text><text x="50" y="200" class="entity-label" font-weight="bold">ORG (5981)</text><rect x="50" y="210" width="200" height="60" class="entity-box"/><text x="60" y="230" class="entity-text">the Python Software Found...</text><text x="60" y="245" class="entity-label">Companies, agencies, institutions, etc.</text><rect x="270" y="210" width="200" height="60" class="entity-box"/><text x="280" y="230" class="entity-text">PSF</text><text x="280" y="245" class="entity-label">Companies, agencies, institutions, etc.</text><rect x="490" y="210" width="200" height="60" class="entity-box"/><text x="500" y="230" class="entity-text">PyPI Orgs</text><text x="500" y="245" class="entity-label">Companies, agencies, institutions, etc.</text><rect x="710" y="210" width="200" height="60" class="entity-box"/><text x="720" y="230" class="entity-text">Board Election, & Yearly ...</text><text x="720" y="245" class="entity-label">Companies, agencies, institutions, etc.</text><rect x="930" y="210" width="200" height="60" class="entity-box"/><text x="940" y="230" class="entity-text">Python Software Foundatio...</text><text x="940" y="245" class="entity-label">Companies, agencies, institutions, etc.</text><text x="50" y="310" class="entity-label" font-weight="bold">DATE (2916)</text><rect x="50" y="320" width="200" height="60" class="entity-box"/><text x="60" y="340" class="entity-text">2025-07-24</text><text x="60" y="355" class="entity-label">Absolute or relative dates or periods</text><rect x="270" y="320" width="200" height="60" class="entity-box"/><text x="280" y="340" class="entity-text">July 29th</text><text x="280" y="355" class="entity-label">Absolute or relative dates or periods</text><rect x="490" y="320" width="200" height="60" class="entity-box"/><text x="500" y="340" class="entity-text">2025-07-22</text><text x="500" y="355" class="entity-label">Absolute or relative dates or periods</text><rect x="710" y="320" width="200" height="60" class="entity-box"/><text x="720" y="340" class="entity-text">2025-07-16</text><text x="720" y="355" class="entity-label">Absolute or relative dates or periods</text><rect x="930" y="320" width="200" height="60" class="entity-box"/><text x="940" y="340" class="entity-text">2025-07-09</text><text x="940" y="355" class="entity-label">Absolute or relative dates or periods</text><text x="50" y="420" class="entity-label" font-weight="bold">CARDINAL (3138)</text><rect x="50" y="430" width="200" height="60" class="entity-box"/><text x="60" y="450" class="entity-text">3.14</text><text x="60" y="465" class="entity-label">Numerals that do not fall under another type</text><rect x="270" y="430" width="200" height="60" class="entity-box"/><text x="280" y="450" class="entity-text">1</text><text x="280" y="465" class="entity-label">Numerals that do not fall under another type</text><rect x="490" y="430" width="200" height="60" class="entity-box"/><text x="500" y="450" class="entity-text">2025</text><text x="500" y="465" class="entity-label">Numerals that do not fall under another type</text><rect x="710" y="430" width="200" height="60" class="entity-box"/><text x="720" y="450" class="entity-text">2</text><text x="720" y="465" class="entity-label">Numerals that do not fall under another type</text><rect x="930" y="430" width="200" height="60" class="entity-box"/><text x="940" y="450" class="entity-text">2.1</text><text x="940" y="465" class="entity-label">Numerals that do not fall under another type</text><text x="50" y="530" class="entity-label" font-weight="bold">PRODUCT (953)</text><rect x="50" y="540" width="200" height="60" class="entity-box"/><text x="60" y="560" class="entity-text">Buea - Creating Python Co...</text><text x="60" y="575" class="entity-label">Objects, vehicles, foods, etc. (not services)</text><rect x="270" y="540" width="200" height="60" class="entity-box"/><text x="280" y="560" class="entity-text">SciPy</text><text x="280" y="575" class="entity-label">Objects, vehicles, foods, etc. (not services)</text><rect x="490" y="540" width="200" height="60" class="entity-box"/><text x="500" y="560" class="entity-text">Python</text><text x="500" y="575" class="entity-label">Objects, vehicles, foods, etc. (not services)</text><rect x="710" y="540" width="200" height="60" class="entity-box"/><text x="720" y="560" class="entity-text">Scripts</text><text x="720" y="575" class="entity-label">Objects, vehicles, foods, etc. (not services)</text><rect x="930" y="540" width="200" height="60" class="entity-box"/><text x="940" y="560" class="entity-text">Notebooks</text><text x="940" y="575" class="entity-label">Objects, vehicles, foods, etc. (not services)</text><text x="50" y="640" class="entity-label" font-weight="bold">GPE (1068)</text><rect x="50" y="650" width="200" height="60" class="entity-box"/><text x="60" y="670" class="entity-text">Somalia</text><text x="60" y="685" class="entity-label">Countries, cities, states</text><rect x="270" y="650" width="200" height="60" class="entity-box"/><text x="280" y="670" class="entity-text">Salt</text><text x="280" y="685" class="entity-label">Countries, cities, states</text><rect x="490" y="650" width="200" height="60" class="entity-box"/><text x="500" y="670" class="entity-text">OpenStack</text><text x="500" y="685" class="entity-label">Countries, cities, states</text><rect x="710" y="650" width="200" height="60" class="entity-box"/><text x="720" y="670" class="entity-text">xonsh</text><text x="720" y="685" class="entity-label">Countries, cities, states</text><rect x="930" y="650" width="200" height="60" class="entity-box"/><text x="940" y="670" class="entity-text">Java</text><text x="940" y="685" class="entity-label">Countries, cities, states</text><text x="50" y="750" class="entity-label" font-weight="bold">FAC (172)</text><rect x="50" y="760" width="200" height="60" class="entity-box"/><text x="60" y="780" class="entity-text">Flask</text><text x="60" y="795" class="entity-label">Buildings, airports, highways, bridges, etc.</text><rect x="270" y="760" width="200" height="60" class="entity-box"/><text x="280" y="780" class="entity-text">AI</text><text x="280" y="795" class="entity-label">Buildings, airports, highways, bridges, etc.</text><rect x="490" y="760" width="200" height="60" class="entity-box"/><text x="500" y="780" class="entity-text">NetBSD</text><text x="500" y="795" class="entity-label">Buildings, airports, highways, bridges, etc.</text><rect x="710" y="760" width="200" height="60" class="entity-box"/><text x="720" y="780" class="entity-text">the Apple Terminal</text><text x="720" y="795" class="entity-label">Buildings, airports, highways, bridges, etc.</text><rect x="930" y="760" width="200" height="60" class="entity-box"/><text x="940" y="780" class="entity-text">zipimport</text><text x="940" y="795" class="entity-label">Buildings, airports, highways, bridges, etc.</text><text x="50" y="860" class="entity-label" font-weight="bold">ORDINAL (73)</text><rect x="50" y="870" width="200" height="60" class="entity-box"/><text x="60" y="890" class="entity-text">third</text><text x="60" y="905" class="entity-label">"first", "second", etc.</text><rect x="270" y="870" width="200" height="60" class="entity-box"/><text x="280" y="890" class="entity-text">First</text><text x="280" y="905" class="entity-label">"first", "second", etc.</text><rect x="490" y="870" width="200" height="60" class="entity-box"/><text x="500" y="890" class="entity-text">fifth</text><text x="500" y="905" class="entity-label">"first", "second", etc.</text><rect x="710" y="870" width="200" height="60" class="entity-box"/><text x="720" y="890" class="entity-text">3rd</text><text x="720" y="905" class="entity-label">"first", "second", etc.</text><rect x="930" y="870" width="200" height="60" class="entity-box"/><text x="940" y="890" class="entity-text">second</text><text x="940" y="905" class="entity-label">"first", "second", etc.</text><text x="50" y="970" class="entity-label" font-weight="bold">MONEY (44)</text><rect x="50" y="980" width="200" height="60" class="entity-box"/><text x="60" y="1000" class="entity-text">around $150,000</text><text x="60" y="1015" class="entity-label">Monetary values, including unit</text><rect x="270" y="980" width="200" height="60" class="entity-box"/><text x="280" y="1000" class="entity-text">42</text><text x="280" y="1015" class="entity-label">Monetary values, including unit</text><rect x="490" y="980" width="200" height="60" class="entity-box"/><text x="500" y="1000" class="entity-text">“not equal”</text><text x="500" y="1015" class="entity-label">Monetary values, including unit</text><rect x="710" y="980" width="200" height="60" class="entity-box"/><text x="720" y="1000" class="entity-text">“threaded code”</text><text x="720" y="1015" class="entity-label">Monetary values, including unit</text><rect x="930" y="980" width="200" height="60" class="entity-box"/><text x="940" y="1000" class="entity-text">zlib’c
crc32</text><text x="940" y="1015" class="entity-label">Monetary values, including unit</text><text x="50" y="1080" class="entity-label" font-weight="bold">EVENT (31)</text><rect x="50" y="1090" width="200" height="60" class="entity-box"/><text x="60" y="1110" class="entity-text">final¶
Release date</text><text x="60" y="1125" class="entity-label">Named hurricanes, battles, wars, sports events, etc.</text><rect x="270" y="1090" width="200" height="60" class="entity-box"/><text x="280" y="1110" class="entity-text">Hugo</text><text x="280" y="1125" class="entity-label">Named hurricanes, battles, wars, sports events, etc.</text><rect x="490" y="1090" width="200" height="60" class="entity-box"/><text x="500" y="1110" class="entity-text">final¶
Release</text><text x="500" y="1125" class="entity-label">Named hurricanes, battles, wars, sports events, etc.</text><rect x="710" y="1090" width="200" height="60" class="entity-box"/><text x="720" y="1110" class="entity-text">libmpdecimal</text><text x="720" y="1125" class="entity-label">Named hurricanes, battles, wars, sports events, etc.</text><rect x="930" y="1090" width="200" height="60" class="entity-box"/><text x="940" y="1110" class="entity-text">BaseEventLoop._run_once</text><text x="940" y="1125" class="entity-label">Named hurricanes, battles, wars, sports events, etc.</text><text x="50" y="1190" class="entity-label" font-weight="bold">PERCENT (157)</text><rect x="50" y="1200" width="200" height="60" class="entity-box"/><text x="60" y="1220" class="entity-text">2f or %</text><text x="60" y="1235" class="entity-label">Percentage, including "%"</text><rect x="270" y="1200" width="200" height="60" class="entity-box"/><text x="280" y="1220" class="entity-text">8.6.15.</text><text x="280" y="1235" class="entity-label">Percentage, including "%"</text><rect x="490" y="1200" width="200" height="60" class="entity-box"/><text x="500" y="1220" class="entity-text">20%</text><text x="500" y="1235" class="entity-label">Percentage, including "%"</text><rect x="710" y="1200" width="200" height="60" class="entity-box"/><text x="720" y="1220" class="entity-text">14%</text><text x="720" y="1235" class="entity-label">Percentage, including "%"</text><rect x="930" y="1200" width="200" height="60" class="entity-box"/><text x="940" y="1220" class="entity-text">~50%</text><text x="940" y="1235" class="entity-label">Percentage, including "%"</text><text x="50" y="1300" class="entity-label" font-weight="bold">QUANTITY (38)</text><rect x="50" y="1310" width="200" height="60" class="entity-box"/><text x="60" y="1330" class="entity-text">2GB</text><text x="60" y="1345" class="entity-label">Measurements, as of weight or distance</text><rect x="270" y="1310" width="200" height="60" class="entity-box"/><text x="280" y="1330" class="entity-text">zero-width</text><text x="280" y="1345" class="entity-label">Measurements, as of weight or distance</text><rect x="490" y="1310" width="200" height="60" class="entity-box"/><text x="500" y="1330" class="entity-text">15.6 ms</text><text x="500" y="1345" class="entity-label">Measurements, as of weight or distance</text><rect x="710" y="1310" width="200" height="60" class="entity-box"/><text x="720" y="1330" class="entity-text">1-byte</text><text x="720" y="1345" class="entity-label">Measurements, as of weight or distance</text><rect x="930" y="1310" width="200" height="60" class="entity-box"/><text x="940" y="1330" class="entity-text">1-tuple</text><text x="940" y="1345" class="entity-label">Measurements, as of weight or distance</text><text x="50" y="1410" class="entity-label" font-weight="bold">TIME (64)</text><rect x="50" y="1420" width="200" height="60" class="entity-box"/><text x="60" y="1440" class="entity-text">DEBUG_STATS</text><text x="60" y="1455" class="entity-label">Times smaller than a day</text><rect x="270" y="1420" width="200" height="60" class="entity-box"/><text x="280" y="1440" class="entity-text">open_binary</text><text x="280" y="1455" class="entity-label">Times smaller than a day</text><rect x="490" y="1420" width="200" height="60" class="entity-box"/><text x="500" y="1440" class="entity-text">midnight</text><text x="500" y="1455" class="entity-label">Times smaller than a day</text><rect x="710" y="1420" width="200" height="60" class="entity-box"/><text x="720" y="1440" class="entity-text">seconds</text><text x="720" y="1455" class="entity-label">Times smaller than a day</text><rect x="930" y="1420" width="200" height="60" class="entity-box"/><text x="940" y="1440" class="entity-text">10 minutes</text><text x="940" y="1455" class="entity-label">Times smaller than a day</text><text x="50" y="1520" class="entity-label" font-weight="bold">LOC (66)</text><rect x="50" y="1530" width="200" height="60" class="entity-box"/><text x="60" y="1550" class="entity-text">Android</text><text x="60" y="1565" class="entity-label">Non-GPE locations, mountain ranges, bodies of water</text><rect x="270" y="1530" width="200" height="60" class="entity-box"/><text x="280" y="1550" class="entity-text">Kernc</text><text x="280" y="1565" class="entity-label">Non-GPE locations, mountain ranges, bodies of water</text><rect x="490" y="1530" width="200" height="60" class="entity-box"/><text x="500" y="1550" class="entity-text">MAP_HASSEMAPHORE</text><text x="500" y="1565" class="entity-label">Non-GPE locations, mountain ranges, bodies of water</text><rect x="710" y="1530" width="200" height="60" class="entity-box"/><text x="720" y="1550" class="entity-text">What’s New</text><text x="720" y="1565" class="entity-label">Non-GPE locations, mountain ranges, bodies of water</text><rect x="930" y="1530" width="200" height="60" class="entity-box"/><text x="940" y="1550" class="entity-text">macOS Catalina</text><text x="940" y="1565" class="entity-label">Non-GPE locations, mountain ranges, bodies of water</text><text x="50" y="1630" class="entity-label" font-weight="bold">EMAIL (14)</text><rect x="50" y="1640" width="200" height="60" class="entity-box"/><text x="60" y="1660" class="entity-text">sales@w3schools.com</text><text x="60" y="1675" class="entity-label">Email address</text><rect x="270" y="1640" width="200" height="60" class="entity-box"/><text x="280" y="1660" class="entity-text">help@w3schools.com</text><text x="280" y="1675" class="entity-label">Email address</text><rect x="490" y="1640" width="200" height="60" class="entity-box"/><text x="500" y="1660" class="entity-text">greg@krypto.org</text><text x="500" y="1675" class="entity-label">Email address</text><rect x="710" y="1640" width="200" height="60" class="entity-box"/><text x="720" y="1660" class="entity-text">seth@python.org</text><text x="720" y="1675" class="entity-label">Email address</text><rect x="930" y="1640" width="200" height="60" class="entity-box"/><text x="940" y="1660" class="entity-text">el@horse64.org</text><text x="940" y="1675" class="entity-label">Email address</text><text x="50" y="1740" class="entity-label" font-weight="bold">URL (85)</text><rect x="50" y="1750" width="200" height="60" class="entity-box"/><text x="60" y="1770" class="entity-text">https://www.python.org/</text><text x="60" y="1785" class="entity-label">Website URL</text><rect x="270" y="1750" width="200" height="60" class="entity-box"/><text x="280" y="1770" class="entity-text">https://docs.python.org/3...</text><text x="280" y="1785" class="entity-label">Website URL</text><rect x="490" y="1750" width="200" height="60" class="entity-box"/><text x="500" y="1770" class="entity-text">https://www.python.org/,</text><text x="500" y="1785" class="entity-label">Website URL</text><rect x="710" y="1750" width="200" height="60" class="entity-box"/><text x="720" y="1770" class="entity-text">https://realpython.com/</text><text x="720" y="1785" class="entity-label">Website URL</text><rect x="930" y="1750" width="200" height="60" class="entity-box"/><text x="940" y="1770" class="entity-text">https://www.geeksforgeeks...</text><text x="940" y="1785" class="entity-label">Website URL</text><text x="50" y="1850" class="entity-label" font-weight="bold">VERSION (1321)</text><rect x="50" y="1860" width="200" height="60" class="entity-box"/><text x="60" y="1880" class="entity-text">Python 3.13.5</text><text x="60" y="1895" class="entity-label">Software version</text><rect x="270" y="1860" width="200" height="60" class="entity-box"/><text x="280" y="1880" class="entity-text">Python 3.14</text><text x="280" y="1895" class="entity-label">Software version</text><rect x="490" y="1860" width="200" height="60" class="entity-box"/><text x="500" y="1880" class="entity-text">Interpreter
2.1</text><text x="500" y="1895" class="entity-label">Software version</text><rect x="710" y="1860" width="200" height="60" class="entity-box"/><text x="720" y="1880" class="entity-text">Interpreter
2.1.1</text><text x="720" y="1895" class="entity-label">Software version</text><rect x="930" y="1860" width="200" height="60" class="entity-box"/><text x="940" y="1880" class="entity-text">Passing
2.1.2</text><text x="940" y="1895" class="entity-label">Software version</text><text x="50" y="1960" class="entity-label" font-weight="bold">YEAR (103)</text><rect x="50" y="1970" width="200" height="60" class="entity-box"/><text x="60" y="1990" class="entity-text">2025</text><text x="60" y="2005" class="entity-label">Year</text><rect x="270" y="1970" width="200" height="60" class="entity-box"/><text x="280" y="1990" class="entity-text">1985</text><text x="280" y="2005" class="entity-label">Year</text><rect x="490" y="1970" width="200" height="60" class="entity-box"/><text x="500" y="1990" class="entity-text">1990</text><text x="500" y="2005" class="entity-label">Year</text><rect x="710" y="1970" width="200" height="60" class="entity-box"/><text x="720" y="1990" class="entity-text">2022</text><text x="720" y="2005" class="entity-label">Year</text><rect x="930" y="1970" width="200" height="60" class="entity-box"/><text x="940" y="1990" class="entity-text">2024</text><text x="940" y="2005" class="entity-label">Year</text>
</svg>