<?xml version="1.0" encoding="UTF-8"?>
<svg width="1000" height="1580" xmlns="http://www.w3.org/2000/svg">
    <rect width="100%" height="100%" fill="#ffffff"/>
    
    <defs>
        <style>
            .entity-box { fill: #e3f2fd; stroke: #1976d2; stroke-width: 2; rx: 5; }
            .entity-text { font-family: Arial, sans-serif; font-size: 12px; fill: #1565c0; }
            .entity-label { font-family: Arial, sans-serif; font-size: 10px; fill: #666; }
            .relationship-line { stroke: #ff9800; stroke-width: 2; marker-end: url(#arrowhead); }
            .title { font-family: Arial, sans-serif; font-size: 20px; font-weight: bold; fill: #333; }
            .subtitle { font-family: Arial, sans-serif; font-size: 14px; fill: #666; }
        </style>
        <marker id="arrowhead" markerWidth="10" markerHeight="7" refX="9" refY="3.5" orient="auto">
            <polygon points="0 0, 10 3.5, 0 7" fill="#ff9800" />
        </marker>
    </defs>
    <text x="400" y="30" text-anchor="middle" class="title">Entity Analysis Results</text><text x="400" y="50" text-anchor="middle" class="subtitle">Found 139 entities across 13 categories</text><text x="50" y="90" class="entity-label" font-weight="bold">DATE (32)</text><rect x="50" y="100" width="200" height="60" class="entity-box"/><text x="60" y="120" class="entity-text">2024</text><text x="60" y="135" class="entity-label">Absolute or relative dates or periods</text><rect x="270" y="100" width="200" height="60" class="entity-box"/><text x="280" y="120" class="entity-text">30 days</text><text x="280" y="135" class="entity-label">Absolute or relative dates or periods</text><rect x="490" y="100" width="200" height="60" class="entity-box"/><text x="500" y="120" class="entity-text">January</text><text x="500" y="135" class="entity-label">Absolute or relative dates or periods</text><rect x="710" y="100" width="200" height="60" class="entity-box"/><text x="720" y="120" class="entity-text">July</text><text x="720" y="135" class="entity-label">Absolute or relative dates or periods</text><rect x="930" y="100" width="200" height="60" class="entity-box"/><text x="940" y="120" class="entity-text">September</text><text x="940" y="135" class="entity-label">Absolute or relative dates or periods</text><text x="50" y="200" class="entity-label" font-weight="bold">LOC (6)</text><rect x="50" y="210" width="200" height="60" class="entity-box"/><text x="60" y="230" class="entity-text">Mars</text><text x="60" y="245" class="entity-label">Non-GPE locations, mountain ranges, bodies of water</text><rect x="270" y="210" width="200" height="60" class="entity-box"/><text x="280" y="230" class="entity-text">Earth</text><text x="280" y="245" class="entity-label">Non-GPE locations, mountain ranges, bodies of water</text><rect x="490" y="210" width="200" height="60" class="entity-box"/><text x="500" y="230" class="entity-text">Earths</text><text x="500" y="245" class="entity-label">Non-GPE locations, mountain ranges, bodies of water</text><rect x="710" y="210" width="200" height="60" class="entity-box"/><text x="720" y="230" class="entity-text">Jupiter</text><text x="720" y="245" class="entity-label">Non-GPE locations, mountain ranges, bodies of water</text><rect x="930" y="210" width="200" height="60" class="entity-box"/><text x="940" y="230" class="entity-text">the moon</text><text x="940" y="245" class="entity-label">Non-GPE locations, mountain ranges, bodies of water</text><text x="50" y="310" class="entity-label" font-weight="bold">PERSON (16)</text><rect x="50" y="320" width="200" height="60" class="entity-box"/><text x="60" y="340" class="entity-text">Ginny</text><text x="60" y="355" class="entity-label">People, including fictional</text><rect x="270" y="320" width="200" height="60" class="entity-box"/><text x="280" y="340" class="entity-text">Sofia Caetano</text><text x="280" y="355" class="entity-label">People, including fictional</text><rect x="490" y="320" width="200" height="60" class="entity-box"/><text x="500" y="340" class="entity-text">Emily ConoverJuly 13</text><text x="500" y="355" class="entity-label">People, including fictional</text><rect x="710" y="320" width="200" height="60" class="entity-box"/><text x="720" y="340" class="entity-text">NEO Surveyor</text><text x="720" y="355" class="entity-label">People, including fictional</text><rect x="930" y="320" width="200" height="60" class="entity-box"/><text x="940" y="340" class="entity-text">Webb</text><text x="940" y="355" class="entity-label">People, including fictional</text><text x="50" y="420" class="entity-label" font-weight="bold">ORDINAL (2)</text><rect x="50" y="430" width="200" height="60" class="entity-box"/><text x="60" y="450" class="entity-text">first</text><text x="60" y="465" class="entity-label">"first", "second", etc.</text><rect x="270" y="430" width="200" height="60" class="entity-box"/><text x="280" y="450" class="entity-text">third</text><text x="280" y="465" class="entity-label">"first", "second", etc.</text><text x="50" y="530" class="entity-label" font-weight="bold">CARDINAL (26)</text><rect x="50" y="540" width="200" height="60" class="entity-box"/><text x="60" y="560" class="entity-text">72</text><text x="60" y="575" class="entity-label">Numerals that do not fall under another type</text><rect x="270" y="540" width="200" height="60" class="entity-box"/><text x="280" y="560" class="entity-text">12</text><text x="280" y="575" class="entity-label">Numerals that do not fall under another type</text><rect x="490" y="540" width="200" height="60" class="entity-box"/><text x="500" y="560" class="entity-text">four</text><text x="500" y="575" class="entity-label">Numerals that do not fall under another type</text><rect x="710" y="540" width="200" height="60" class="entity-box"/><text x="720" y="560" class="entity-text">315</text><text x="720" y="575" class="entity-label">Numerals that do not fall under another type</text><rect x="930" y="540" width="200" height="60" class="entity-box"/><text x="940" y="560" class="entity-text">1a</text><text x="940" y="575" class="entity-label">Numerals that do not fall under another type</text><text x="50" y="640" class="entity-label" font-weight="bold">ORG (34)</text><rect x="50" y="650" width="200" height="60" class="entity-box"/><text x="60" y="670" class="entity-text">SN</text><text x="60" y="685" class="entity-label">Companies, agencies, institutions, etc.</text><rect x="270" y="650" width="200" height="60" class="entity-box"/><text x="280" y="670" class="entity-text">SN 82424</text><text x="280" y="685" class="entity-label">Companies, agencies, institutions, etc.</text><rect x="490" y="650" width="200" height="60" class="entity-box"/><text x="500" y="670" class="entity-text">SpaceX</text><text x="500" y="685" class="entity-label">Companies, agencies, institutions, etc.</text><rect x="710" y="650" width="200" height="60" class="entity-box"/><text x="720" y="670" class="entity-text">the International Space S...</text><text x="720" y="685" class="entity-label">Companies, agencies, institutions, etc.</text><rect x="930" y="650" width="200" height="60" class="entity-box"/><text x="940" y="670" class="entity-text">LIGO</text><text x="940" y="685" class="entity-label">Companies, agencies, institutions, etc.</text><text x="50" y="750" class="entity-label" font-weight="bold">TIME (1)</text><rect x="50" y="760" width="200" height="60" class="entity-box"/><text x="60" y="780" class="entity-text">12524 Ingenuitys</text><text x="60" y="795" class="entity-label">Times smaller than a day</text><text x="50" y="860" class="entity-label" font-weight="bold">PRODUCT (9)</text><rect x="50" y="870" width="200" height="60" class="entity-box"/><text x="60" y="890" class="entity-text">Mars Sample Return</text><text x="60" y="905" class="entity-label">Objects, vehicles, foods, etc. (not services)</text><rect x="270" y="870" width="200" height="60" class="entity-box"/><text x="280" y="890" class="entity-text">61524</text><text x="280" y="905" class="entity-label">Objects, vehicles, foods, etc. (not services)</text><rect x="490" y="870" width="200" height="60" class="entity-box"/><text x="500" y="890" class="entity-text">52720</text><text x="500" y="905" class="entity-label">Objects, vehicles, foods, etc. (not services)</text><rect x="710" y="870" width="200" height="60" class="entity-box"/><text x="720" y="890" class="entity-text">Polaris Dawn</text><text x="720" y="905" class="entity-label">Objects, vehicles, foods, etc. (not services)</text><rect x="930" y="870" width="200" height="60" class="entity-box"/><text x="940" y="890" class="entity-text">Once Clipper</text><text x="940" y="905" class="entity-label">Objects, vehicles, foods, etc. (not services)</text><text x="50" y="970" class="entity-label" font-weight="bold">GPE (2)</text><rect x="50" y="980" width="200" height="60" class="entity-box"/><text x="60" y="1000" class="entity-text">Mara JohnsonGrohJuly 21</text><text x="60" y="1015" class="entity-label">Countries, cities, states</text><rect x="270" y="980" width="200" height="60" class="entity-box"/><text x="280" y="1000" class="entity-text">Mara JohnsonGrohJuly 21,</text><text x="280" y="1015" class="entity-label">Countries, cities, states</text><text x="50" y="1080" class="entity-label" font-weight="bold">FAC (1)</text><rect x="50" y="1090" width="200" height="60" class="entity-box"/><text x="60" y="1110" class="entity-text">Douglas FoxJuly 9</text><text x="60" y="1125" class="entity-label">Buildings, airports, highways, bridges, etc.</text><text x="50" y="1190" class="entity-label" font-weight="bold">EVENT (1)</text><rect x="50" y="1200" width="200" height="60" class="entity-box"/><text x="60" y="1220" class="entity-text">The International Year</text><text x="60" y="1235" class="entity-label">Named hurricanes, battles, wars, sports events, etc.</text><text x="50" y="1300" class="entity-label" font-weight="bold">QUANTITY (2)</text><rect x="50" y="1310" width="200" height="60" class="entity-box"/><text x="60" y="1330" class="entity-text">just 3 liters</text><text x="60" y="1345" class="entity-label">Measurements, as of weight or distance</text><rect x="270" y="1310" width="200" height="60" class="entity-box"/><text x="280" y="1330" class="entity-text">only about 10 watts</text><text x="280" y="1345" class="entity-label">Measurements, as of weight or distance</text><text x="50" y="1410" class="entity-label" font-weight="bold">YEAR (7)</text><rect x="50" y="1420" width="200" height="60" class="entity-box"/><text x="60" y="1440" class="entity-text">2024</text><text x="60" y="1455" class="entity-label">Year</text><rect x="270" y="1420" width="200" height="60" class="entity-box"/><text x="280" y="1440" class="entity-text">2025</text><text x="280" y="1455" class="entity-label">Year</text><rect x="490" y="1420" width="200" height="60" class="entity-box"/><text x="500" y="1440" class="entity-text">2009</text><text x="500" y="1455" class="entity-label">Year</text><rect x="710" y="1420" width="200" height="60" class="entity-box"/><text x="720" y="1440" class="entity-text">2027</text><text x="720" y="1455" class="entity-label">Year</text><rect x="930" y="1420" width="200" height="60" class="entity-box"/><text x="940" y="1440" class="entity-text">2018</text><text x="940" y="1455" class="entity-label">Year</text>
</svg>